<mxfile host="app.diagrams.net" modified="2023-05-26T14:55:25.393Z" agent="Mozilla/5.0 (Windows NT 10.0; Win64; x64) AppleWebKit/537.36 (KHTML, like Gecko) Chrome/110.0.0.0 YaBrowser/23.3.4.603 Yowser/2.5 Safari/537.36" etag="tW6nVrY2_XyTqqTwGATS" version="21.3.4" type="github">
  <diagram name="Страница 1" id="ft1EgBaMOPwKz2MOF6yy">
    <mxGraphModel dx="691" dy="392" grid="1" gridSize="10" guides="1" tooltips="1" connect="1" arrows="1" fold="1" page="1" pageScale="1" pageWidth="827" pageHeight="1169" math="0" shadow="0">
      <root>
        <mxCell id="0" />
        <mxCell id="1" parent="0" />
        <mxCell id="zHwJBEqUBdXe-Pb85n1V-16" value="" style="rounded=1;whiteSpace=wrap;html=1;dashed=1;" vertex="1" parent="1">
          <mxGeometry x="130" y="270" width="510" height="220" as="geometry" />
        </mxCell>
        <mxCell id="zHwJBEqUBdXe-Pb85n1V-15" value="" style="rounded=1;whiteSpace=wrap;html=1;dashed=1;" vertex="1" parent="1">
          <mxGeometry x="130" y="170" width="510" height="90" as="geometry" />
        </mxCell>
        <mxCell id="zHwJBEqUBdXe-Pb85n1V-4" value="" style="rounded=0;whiteSpace=wrap;html=1;" vertex="1" parent="1">
          <mxGeometry x="324" y="290" width="90" height="160" as="geometry" />
        </mxCell>
        <mxCell id="zHwJBEqUBdXe-Pb85n1V-6" value="" style="ellipse;whiteSpace=wrap;html=1;" vertex="1" parent="1">
          <mxGeometry x="190" y="190" width="170" height="60" as="geometry" />
        </mxCell>
        <mxCell id="zHwJBEqUBdXe-Pb85n1V-22" style="edgeStyle=orthogonalEdgeStyle;rounded=0;orthogonalLoop=1;jettySize=auto;html=1;exitX=0;exitY=0.5;exitDx=0;exitDy=0;entryX=0.75;entryY=0;entryDx=0;entryDy=0;" edge="1" parent="1" source="zHwJBEqUBdXe-Pb85n1V-7" target="zHwJBEqUBdXe-Pb85n1V-4">
          <mxGeometry relative="1" as="geometry">
            <Array as="points">
              <mxPoint x="391" y="220" />
            </Array>
          </mxGeometry>
        </mxCell>
        <mxCell id="zHwJBEqUBdXe-Pb85n1V-7" value="" style="ellipse;whiteSpace=wrap;html=1;" vertex="1" parent="1">
          <mxGeometry x="430" y="190" width="170" height="60" as="geometry" />
        </mxCell>
        <mxCell id="zHwJBEqUBdXe-Pb85n1V-11" value="" style="endArrow=classic;html=1;rounded=0;exitX=0.608;exitY=0.971;exitDx=0;exitDy=0;entryX=0.5;entryY=0;entryDx=0;entryDy=0;exitPerimeter=0;" edge="1" parent="1" source="zHwJBEqUBdXe-Pb85n1V-6">
          <mxGeometry width="50" height="50" relative="1" as="geometry">
            <mxPoint x="314" y="250" as="sourcePoint" />
            <mxPoint x="344" y="290" as="targetPoint" />
          </mxGeometry>
        </mxCell>
        <mxCell id="zHwJBEqUBdXe-Pb85n1V-17" value="&lt;b&gt;presentation&lt;/b&gt;" style="text;html=1;strokeColor=none;fillColor=none;align=center;verticalAlign=middle;whiteSpace=wrap;rounded=0;" vertex="1" parent="1">
          <mxGeometry x="150" y="460" width="60" height="30" as="geometry" />
        </mxCell>
        <mxCell id="zHwJBEqUBdXe-Pb85n1V-18" value="&lt;b&gt;domain&lt;br&gt;&lt;/b&gt;" style="text;html=1;strokeColor=none;fillColor=none;align=center;verticalAlign=middle;whiteSpace=wrap;rounded=0;" vertex="1" parent="1">
          <mxGeometry x="140" y="170" width="60" height="30" as="geometry" />
        </mxCell>
      </root>
    </mxGraphModel>
  </diagram>
</mxfile>
